{"title":"Urban Legend [BDRip-720p-Mkv-Ita/Eng-Dts-Ac3-Rus-Ac3-MultiSub][N","uid":6338843,"size":4692387534,"categoryP":"video","categoryS":"hd___movies","magnet":"?xt=urn:btih:456eb7c8506bfe295abb36a67b7b834569f577e6&amp;dn=Urban+Legend+%5BBDRip-720p-Mkv-Ita%2FEng-Dts-Ac3-Rus-Ac3-MultiSub%5D%5BN&amp;tr=udp%3A%2F%2Ftracker.openbittorrent.com%3A80&amp;tr=udp%3A%2F%2Fopen.demonii.com%3A1337&amp;tr=udp%3A%2F%2Ftracker.coppersurfer.tk%3A6969&amp;tr=udp%3A%2F%2Fexodus.desync.com%3A6969","seeders":1,"leechers":0,"uploader":"maxneb","files":1,"time":1303569162,"description":"Urban Legend [BDRip-720p-Mkv-Ita/Eng-Dts-Ac3-Rus-Ac3-MultiSub][Nautilus-BT]\n\n\n\nGeneral\nComplete name                    : E:\\Urban Legend [BDRip-720p-MultiLang-MultiSub-Chapters][RiP By MaX].mkv\nFormat                           : Matroska\nFile size                        : 4.37 GiB\nDuration                         : 1h 39mn\nOverall bit rate                 : 6 286 Kbps\nEncoded date                     : UTC 2011-04-06 10:52:45\nWriting application              : mkvmerge v4.6.0 ('Still Crazy After All These Years') built on Mar 10 2011 02:50:32\nWriting library                  : libebml v1.2.0 + libmatroska v1.1.0\n\nVideo\nID                               : 1\nFormat                           : AVC\nFormat/Info                      : Advanced Video Codec\nFormat profile                   : &lt;a class=&quot;__cf_email__&quot; href=&quot;/cdn-cgi/l/email-protection&quot; data-cfemail=&quot;357d5c525d7579011b04&quot;&gt;[email&amp;#160;protected]&lt;/a&gt;&lt;script cf-hash='f9e31' type=&quot;text/javascript&quot;&gt;\n/* &lt;![CDATA[ */!function(){try{var t=&quot;currentScript&quot;in document?document.currentScript:function(){for(var t=document.getElementsByTagName(&quot;script&quot;),e=t.length;e--;)if(t[e].getAttribute(&quot;cf-hash&quot;))return t[e]}();if(t&amp;&amp;t.previousSibling){var e,r,n,i,c=t.previousSibling,a=c.getAttribute(&quot;data-cfemail&quot;);if(a){for(e=&quot;&quot;,r=parseInt(a.substr(0,2),16),n=2;a.length-n;n+=2)i=parseInt(a.substr(n,2),16)^r,e+=String.fromCharCode(i);e=document.createTextNode(e),c.parentNode.replaceChild(e,c)}}}catch(u){}}();/* ]]&gt; */&lt;/script&gt;\nFormat settings, CABAC           : Yes\nFormat settings, ReFrames        : 5 frames\nMuxing mode                      : Container profile=&lt;a class=&quot;__cf_email__&quot; href=&quot;/cdn-cgi/l/email-protection&quot; data-cfemail=&quot;2b7e454045445c456b1f051a&quot;&gt;[email&amp;#160;protected]&lt;/a&gt;&lt;script cf-hash='f9e31' type=&quot;text/javascript&quot;&gt;\n/* &lt;![CDATA[ */!function(){try{var t=&quot;currentScript&quot;in document?document.currentScript:function(){for(var t=document.getElementsByTagName(&quot;script&quot;),e=t.length;e--;)if(t[e].getAttribute(&quot;cf-hash&quot;))return t[e]}();if(t&amp;&amp;t.previousSibling){var e,r,n,i,c=t.previousSibling,a=c.getAttribute(&quot;data-cfemail&quot;);if(a){for(e=&quot;&quot;,r=parseInt(a.substr(0,2),16),n=2;a.length-n;n+=2)i=parseInt(a.substr(n,2),16)^r,e+=String.fromCharCode(i);e=document.createTextNode(e),c.parentNode.replaceChild(e,c)}}}catch(u){}}();/* ]]&gt; */&lt;/script&gt;\nCodec ID                         : V_MPEG4/ISO/AVC\nDuration                         : 1h 39mn\nBit rate                         : 3 727 Kbps\nWidth                            : 1 280 pixels\nHeight                           : 528 pixels\nDisplay aspect ratio             : 2.40:1\nFrame rate                       : 23.976 fps\nColor space                      : YUV\nChroma subsampling               : 4:2:0\nBit depth                        : 8 bits\nScan type                        : Progressive\nBits/(Pixel*Frame)               : 0.230\nStream size                      : 2.52 GiB (58%)\nTitle                            : Urban Legend [BDRip 720p][RiP By MaX]\nWriting library                  : x264 core 114 r1924 08d04a4\nEncoding settings                : cabac=1 / ref=5 / deblock=1:0:0 / analyse=0x3:0x133 / me=hex / subme=7 / psy=1 / psy_rd=1.00:0.00 / mixed_ref=1 / me_range=16 / chroma_me=1 / trellis=1 / 8x8dct=1 / cqm=0 / deadzone=21,11 / fast_pskip=0 / chroma_qp_offset=-2 / threads=6 / sliced_threads=0 / nr=0 / decimate=0 / interlaced=0 / constrained_intra=0 / bframes=3 / b_pyramid=2 / b_adapt=2 / b_bias=0 / direct=3 / weightb=1 / open_gop=0 / weightp=1 / keyint=240 / keyint_min=23 / scenecut=40 / intra_refresh=0 / rc_lookahead=40 / rc=2pass / mbtree=1 / bitrate=3727 / ratetol=1.0 / qcomp=0.60 / qpmin=10 / qpmax=51 / qpstep=4 / cplxblur=20.0 / qblur=0.5 / ip_ratio=1.40 / aq=1:1.00\nLanguage                         : Italian\n\nAudio #1\nID                               : 2\nFormat                           : DTS\nFormat/Info                      : Digital Theater Systems\nCodec ID                         : A_DTS\nDuration                         : 1h 39mn\nBit rate mode                    : Constant\nBit rate                         : 755 Kbps\nChannel(s)                       : 6 channels\nChannel positions                : Front: L C R, Side: L R, LFE\nSampling rate                    : 48.0 KHz\nBit depth                        : 24 bits\nStream size                      : 537 MiB (12%)\nTitle                            : Ita Dts 5.1\nLanguage                         : Italian\n\nAudio #2\nID                               : 3\nFormat                           : AC-3\nFormat/Info                      : Audio Coding 3\nMode extension                   : CM (complete main)\nCodec ID                         : A_AC3\nDuration                         : 1h 39mn\nBit rate mode                    : Constant\nBit rate                         : 384 Kbps\nChannel(s)                       : 6 channels\nChannel positions                : Front: L C R, Side: L R, LFE\nSampling rate                    : 48.0 KHz\nBit depth                        : 16 bits\nStream size                      : 273 MiB (6%)\nTitle                            : Ita Ac3 5.1\nLanguage                         : Italian\n\nAudio #3\nID                               : 4\nFormat                           : DTS\nFormat/Info                      : Digital Theater Systems\nCodec ID                         : A_DTS\nDuration                         : 1h 39mn\nBit rate mode                    : Constant\nBit rate                         : 755 Kbps\nChannel(s)                       : 6 channels\nChannel positions                : Front: L C R, Side: L R, LFE\nSampling rate                    : 48.0 KHz\nBit depth                        : 24 bits\nStream size                      : 537 MiB (12%)\nTitle                            : Eng Dts 5.1\n\nAudio #4\nID                               : 5\nFormat                           : AC-3\nFormat/Info                      : Audio Coding 3\nMode extension                   : CM (complete main)\nCodec ID                         : A_AC3\nDuration                         : 1h 39mn\nBit rate mode                    : Constant\nBit rate                         : 384 Kbps\nChannel(s)                       : 6 channels\nChannel positions                : Front: L C R, Side: L R, LFE\nSampling rate                    : 48.0 KHz\nBit depth                        : 16 bits\nStream size                      : 273 MiB (6%)\nTitle                            : Eng Ac3 5.1\n\nAudio #5\nID                               : 6\nFormat                           : AC-3\nFormat/Info                      : Audio Coding 3\nMode extension                   : CM (complete main)\nCodec ID                         : A_AC3\nDuration                         : 1h 39mn\nBit rate mode                    : Constant\nBit rate                         : 256 Kbps\nChannel(s)                       : 6 channels\nChannel positions                : Front: L C R, Side: L R, LFE\nSampling rate                    : 48.0 KHz\nBit depth                        : 16 bits\nStream size                      : 182 MiB (4%)\nTitle                            : Rus Ac3 5.1\nLanguage                         : Russian\n\nText #1\nID                               : 7\nFormat                           : UTF-8\nCodec ID                         : S_TEXT/UTF8\nCodec ID/Info                    : UTF-8 Plain Text\nTitle                            : Sub Ita Forced\nLanguage                         : Italian\n\nText #2\nID                               : 8\nFormat                           : UTF-8\nCodec ID                         : S_TEXT/UTF8\nCodec ID/Info                    : UTF-8 Plain Text\nTitle                            : Sub Ita\nLanguage                         : Italian\n\nText #3\nID                               : 9\nFormat                           : UTF-8\nCodec ID                         : S_TEXT/UTF8\nCodec ID/Info                    : UTF-8 Plain Text\nTitle                            : Sub Eng\n\nText #4\nID                               : 10\nFormat                           : UTF-8\nCodec ID                         : S_TEXT/UTF8\nCodec ID/Info                    : UTF-8 Plain Text\nTitle                            : Sub Eng SDH\n\nText #5\nID                               : 11\nFormat                           : VobSub\nCodec ID                         : S_VOBSUB\nCodec ID/Info                    : The same subtitle format used on DVDs\nTitle                            : Sub Ara\nLanguage                         : Arabic\n\nText #6\nID                               : 12\nFormat                           : VobSub\nCodec ID                         : S_VOBSUB\nCodec ID/Info                    : The same subtitle format used on DVDs\nTitle                            : Sub Cze\nLanguage                         : Czech\n\nText #7\nID                               : 13\nFormat                           : UTF-8\nCodec ID                         : S_TEXT/UTF8\nCodec ID/Info                    : UTF-8 Plain Text\nTitle                            : Sub Dan\nLanguage                         : Danish\n\nText #8\nID                               : 14\nFormat                           : UTF-8\nCodec ID                         : S_TEXT/UTF8\nCodec ID/Info                    : UTF-8 Plain Text\nTitle                            : Sub Fin\nLanguage                         : Finnish\n\nText #9\nID                               : 15\nFormat                           : VobSub\nCodec ID                         : S_VOBSUB\nCodec ID/Info                    : The same subtitle format used on DVDs\nTitle                            : Sub Gre\nLanguage                         : Greek\n\nText #10\nID                               : 16\nFormat                           : VobSub\nCodec ID                         : S_VOBSUB\nCodec ID/Info                    : The same subtitle format used on DVDs\nTitle                            : Sub Hin\nLanguage                         : Hindi\n\nText #11\nID                               : 17\nFormat                           : VobSub\nCodec ID                         : S_VOBSUB\nCodec ID/Info                    : The same subtitle format used on DVDs\nTitle                            : Sub Hun\nLanguage                         : Hungarian\n\nText #12\nID                               : 18\nFormat                           : VobSub\nCodec ID                         : S_VOBSUB\nCodec ID/Info                    : The same subtitle format used on DVDs\nTitle                            : Sub Ice\nLanguage                         : Icelandic\n\nText #13\nID                               : 19\nFormat                           : UTF-8\nCodec ID                         : S_TEXT/UTF8\nCodec ID/Info                    : UTF-8 Plain Text\nTitle                            : Sub Nor\nLanguage                         : Norwegian\n\nText #14\nID                               : 20\nFormat                           : VobSub\nCodec ID                         : S_VOBSUB\nCodec ID/Info                    : The same subtitle format used on DVDs\nTitle                            : Sub Pol\nLanguage                         : Polish\n\nText #15\nID                               : 21\nFormat                           : UTF-8\nCodec ID                         : S_TEXT/UTF8\nCodec ID/Info                    : UTF-8 Plain Text\nTitle                            : Sub Swe\nLanguage                         : Swedish\n\nText #16\nID                               : 22\nFormat                           : VobSub\nCodec ID                         : S_VOBSUB\nCodec ID/Info                    : The same subtitle format used on DVDs\nTitle                            : Sub Tur\nLanguage                         : Turkish\n\nMenu\n00:00:00.000                     : :01\n00:09:32.071                     : :02\n00:15:11.911                     : :03\n00:20:07.790                     : :04\n00:25:26.108                     : :05\n00:35:10.734                     : :06\n00:37:52.020                     : :07\n00:45:32.271                     : :08\n00:50:17.264                     : :09\n00:56:40.689                     : :10\n00:59:36.114                     : :11\n01:09:00.094                     : :12\n01:15:18.723                     : :13\n01:19:33.268                     : :14\n01:27:00.048                     : :15\n01:31:04.668                     : :16","torrent":{"xt":"urn:btih:456eb7c8506bfe295abb36a67b7b834569f577e6","amp;dn":"Urban+Legend+%5BBDRip-720p-Mkv-Ita%2FEng-Dts-Ac3-Rus-Ac3-MultiSub%5D%5BN","amp;tr":["udp%3A%2F%2Ftracker.openbittorrent.com%3A80","udp%3A%2F%2Fopen.demonii.com%3A1337","udp%3A%2F%2Ftracker.coppersurfer.tk%3A6969","udp%3A%2F%2Fexodus.desync.com%3A6969"],"infoHash":"456eb7c8506bfe295abb36a67b7b834569f577e6","infoHashBuffer":{"type":"Buffer","data":[69,110,183,200,80,107,254,41,90,187,54,166,123,123,131,69,105,245,119,230]},"announce":[],"urlList":[]}}